<svg width="16" height="16" viewBox="0 0 16 16" fill="none" xmlns="http://www.w3.org/2000/svg">
<path d="M7.38272 1.75525C7.59605 1.19259 8.40338 1.19259 8.61738 1.75525L9.99738 5.57792C10.0941 5.83125 10.3401 5.99992 10.6147 5.99992H14.0061C14.6327 5.99992 14.9061 6.77992 14.4134 7.16192L12.0001 9.33325C11.8919 9.41636 11.8129 9.53157 11.7744 9.66236C11.7358 9.79315 11.7397 9.93279 11.7854 10.0613L12.6667 13.7966C12.8814 14.3966 12.1867 14.9119 11.6614 14.5426L8.38338 12.4626C8.27113 12.3837 8.13726 12.3414 8.00005 12.3414C7.86284 12.3414 7.72898 12.3837 7.61672 12.4626L4.33872 14.5426C3.81405 14.9119 3.11872 14.3959 3.33338 13.7966L4.21472 10.0613C4.26044 9.93279 4.26429 9.79315 4.22572 9.66236C4.18716 9.53157 4.10816 9.41636 4.00005 9.33325L1.58672 7.16192C1.09338 6.77992 1.36805 5.99992 1.99338 5.99992H5.38472C5.51825 6.00036 5.64876 5.96025 5.759 5.8849C5.86923 5.80955 5.95399 5.7025 6.00205 5.57792L7.38205 1.75525H7.38272Z" stroke="white" stroke-width="2" stroke-linecap="round" stroke-linejoin="round"/>
</svg>
